<?xml version="1.0" standalone="no"?><!DOCTYPE svg PUBLIC "-//W3C//DTD SVG 1.1//EN" "http://www.w3.org/Graphics/SVG/1.1/DTD/svg11.dtd"><svg t="1603549267295" class="icon" viewBox="0 0 1024 1024" version="1.1" xmlns="http://www.w3.org/2000/svg" p-id="727" xmlns:xlink="http://www.w3.org/1999/xlink" width="200" height="200"><defs><style type="text/css"></style></defs><path d="M512.44502107 1000.12201148c-103.80700144 0-207.56715886 0.09368802-311.3741603 0-118.32873951-0.14053351-192.71751122-74.66983726-192.71751121-192.90488728 0-202.13321808-0.09368802-404.21959215 0.046844-606.35281022 0.04684402-115.19017008 75.27881383-190.70320543 190.18791835-190.79689495 208.36351149-0.14053351 416.72702446-0.14053351 625.09053593 0 115.70545715 0.04684402 191.78062509 75.88779041 191.9211586 191.49955954 0.1873775 202.13321808 0.1873775 404.21959215 0 606.35281024-0.09368802 116.45496724-75.55987937 192.01484662-191.73378107 192.15537865-103.85384545 0.14053351-207.66084688 0.04684402-311.4210043 0.04684402z" fill="#123450" p-id="728"></path><path d="M987.02477334 280.21858191c-0.09368802 12.74165383-0.23422154 25.48330766-0.32790955 38.22496147-6.97980349 13.86591749-16.53604239 25.15539663-30.96409244 31.76044508-17.56661802 2.99803593-35.41430159 1.96746177-53.07460765 3.84123406-42.72201467-23.98428895-72.42130994-60.14810064-95.04711518-102.7295818-12.08583324-22.81318128-11.7110782-22.71949326-29.8866728-4.21598908-29.41822974 29.98036083-58.69592595 60.14810064-89.28526483 88.91050978-13.86591749 13.06956338-13.91276151 23.42215786-2.67012491 37.52229542 11.61739018 14.5685821 22.62580377 29.55876323 35.78905667 42.81570413-3.93492206 14.42804859-15.4117802 18.50350416-28.34081158 20.51780997-16.67657589-9.6967739-25.48330766-26.60757133-36.72594278-41.12930793-8.99410781-11.61739018-15.97391129-11.85161171-25.95174924-1.49901871-26.93548087 27.87236701-50.87292582 58.50854844-79.63533496 84.64767668-7.54193458 6.83926998-6.41767093 12.60112031 1.54586124 18.92510323 12.69480981 10.11837146 27.26339191 17.89452759 37.85020645 30.63618288-4.30967711 14.00644951-14.6154261 21.26731857-28.01290053 25.06170713-4.40336514-1.63955074-6.27713889-5.57447281-8.47882072-9.64992839 0.14053351 5.15287523 2.34221534 10.16521695-0.60897512 14.89649166-6.83926998 8.33828869-13.86591749 16.20813283-26.37334978 12.17952272-10.21206096-14.14698305-16.11444481-29.55876323-14.89649166-44.68947643-3.09172543 13.58485194-5.10602974 30.6830269-14.99018114 45.11107549-12.60112031 5.48078479-19.62776783-2.7638144-26.65441533-10.86788154-5.66816229 1.07741965 5.99607188-18.22243861-8.3851327-7.02664752-13.53800646-3.5601685-23.5626899-11.0552576-28.29396607-24.59326553 9.46255087-12.64796433 23.70322341-19.76830133 35.36745759-29.83982731 8.71304226-7.49509057 10.82103606-12.78849785 2.29537133-22.57895976-24.40588801-28.10658854-50.45132676-54.57362636-76.54360954-81.08750963-11.38316864-11.57054617-19.15932475-12.97587537-28.76240913 2.06114977a173.23964453 173.23964453 0 0 1-35.03954802 39.91135625c-14.42804859 0.23422154-23.23478034-7.49509057-28.57503163-20.09621089 11.1489471-16.95764145 26.51388182-30.44880388 38.13127199-47.1253798 7.82300013-11.19579111 9.13464131-20.09621089-1.63955073-30.58933887-33.44684131-32.6504872-66.42523806-65.81626295-99.21625877-99.12256928-9.46255087-9.60308439-13.77222799-8.01037766-20.04936687 3.70070053-23.75006741 44.3615654-53.30883067 83.94501209-97.95146161 109.89676282-17.75399555-1.78008425-35.69536715-0.74950862-53.35567469-3.74754602-14.80280364-6.51136042-23.93744494-18.59719366-31.47937953-32.22888816 0.14053351-11.0552576 0.23422154-22.15736068 0.37475357-33.21261829 15.97391129-2.48274886 23.46900188 10.11837146 32.69733269 18.92510322 25.29593013 24.21851049 25.0617086 24.40588801 53.63674024 2.90434643 32.18204413-24.21851049 52.27825503-57.24375273 68.81429888-93.07965338 6.3239829-13.67853997 1.82692827-23.32846836-8.10406716-33.25946377-33.68106285-33.63421735-68.0647888-66.56577157-100.66843199-101.27740858 7.86984562-8.01037766 15.92706729-15.88022327 26.88863686-19.67461183 9.88414993 1.92061629 15.88022327 9.46255087 22.43842623 15.97391129 26.51388182 26.32650429 53.12145313 52.55932057 79.16689191 79.3542694 10.25890497 10.4931265 21.4546961 14.33436055 35.74221264 11.71107821 71.90602286-13.30378492 144.42102226-23.89060093 213.65691874-48.99915208 28.20027805-10.25890497 32.18204413-15.97391129 32.88470872-45.95427359 0.28106555-11.38316864-2.81065842-23.5626899 5.48078629-33.72790684l24.40588652-0.14053205c8.66619825 10.96156958 6.37082691 24.07797845 5.29340875 36.07012218-2.20168332 23.70322341 8.85357575 35.78905665 29.98036082 43.28414723 51.62243443 18.31612666 105.02495312 29.04347468 158.52116131 39.58344522 12.17952127 2.38905937 25.10855261 2.67012638 36.77278679 6.41767092 31.01093647 10.02468345 53.21514116-0.1873775 73.54557507-24.12482244 19.11248075-22.48527172 41.41037497-42.30041561 62.44347051-63.09929112 6.55820444-6.51136042 12.36689878-14.24067105 22.3447382-16.06760078 10.96156958 3.79439004 19.44039029 11.0552576 26.93548089 19.62776781-31.76044509 34.24319392-65.20728638 66.84683711-98.79465972 99.21625877-14.4748926 13.95960551-15.50546823 26.37334978-6.88611399 43.28414723 18.59719366 36.63225476 41.78512851 68.90798692 75.55987937 93.45440842 14.38120458 10.44628251 23.98428895 8.66619825 36.3511892-3.09172542 12.41374279-11.75792368 20.61149797-29.74613929 40.75455288-31.90097858zM41.75334537 865.21038555c-3.18541346-10.4931265-7.12033553-20.8457195-4.82496422-32.18204413 17.42608452 16.91079744 29.83982879 7.44824656 43.42468074-6.65189245 22.62580377-23.46900188 47.68751236-44.4552549 72.88975301-65.11359836 12.22636675-10.02468345 12.97587537-15.59915626-2.52959287-21.78260565-31.76044509-12.69480981-62.49031599-27.63814547-93.82916202-41.26984144-7.96353365-3.466479-15.92706729-6.37082691-20.04936687-14.75595961-0.04684402-9.46255087-0.04684402-18.97194723-0.09368802-28.43449811 26.70125933-2.43590484 46.32902718 15.83337779 69.09536295 24.45273203 25.38961815 9.60308439 50.45132676 20.61149797 74.99774829 32.41626566 13.3506304 6.41767093 22.95371479 3.93492206 33.82159488-5.10603121 20.89256499-17.42608452 41.12930793-35.55483513 61.64711934-53.44936271 12.97587537-0.28106555 26.27966028-1.82692827 36.67909877 8.66619825 3.65385652 10.11837146-5.34025127 13.44431843-10.35259447 18.64403768-15.69284574 16.25497685-34.14950591 29.37138571-50.8260818 44.54894292-9.41570686 8.52566474-11.61739018 13.16325289 2.06114981 19.29985826 38.2718055 17.23870847 77.10574211 33.16577428 114.81541648 51.57559042 12.46058828 6.08976138 18.31612666 2.29537132 22.0636712-10.21206097 7.82300013-26.04543875 17.33239648-51.57559042 25.1085526-77.66787317 4.40336514-14.75595961 4.63758666-27.16970241-8.3382872-37.75651841-4.73127616-3.88807806-8.3851327-9.27517482-7.86984563-16.20813283 4.16914361-10.21206096 13.44431843-11.1489471 22.48527173-12.46058829 7.35455708 1.21795169 15.69284574 4.26283311 15.41178021-8.52566475 10.07152746-15.13071319 25.24908613-24.9680191 38.22496-37.05385234 3.18541346-2.95119191 7.86984562-5.48078479 12.22636675-0.70266607 4.02861156 17.19186299-8.33828869 30.91724844-10.07152745 49.04599903 22.2042047 0.32790956 44.31472139-0.60897658 67.45581223 0.60897509 0.7026646-17.66030607-13.44431843-31.90097857-9.55624037-49.28021908 5.34025127-6.08976138 10.53997053-1.96746177 13.53800793 1.78008426 10.68050403 13.25694091 26.27966028 21.17363053 36.39803175 34.85217049 0.09368802 8.01037766 2.67012638 12.03898924 11.05525907 6.74558049 10.72734804 2.34221534 22.06367267 3.51332302 27.63814548 15.22440269 0.28106555 4.07545559-0.51528709 8.57251022-3.60701251 10.68050402-23.79691145 16.20813283-16.48919839 36.39803323-8.66619825 57.57166228 7.54193458 20.42412193 14.94333714 40.98877589 20.14305492 62.16240646 2.71697038 10.96156958 7.16717954 17.05133093 19.48723578 11.61739014 40.56717683-17.94137308 81.18119767-35.64852313 121.42046347-54.24571679 9.93099541-4.59074267 7.82300013-9.0409533 1.03057565-15.17755864-16.77026541-15.13071319-34.66479298-28.90294266-51.29452488-44.12734389-5.94922786-5.48078479-15.31809071-9.22832934-12.32005477-20.28358841 10.21206096-10.53997053 23.18793631-10.86788155 36.53856526-9.88414993 18.87825921 18.31612666 39.34922514 34.85217052 58.93014749 52.41878707 12.32005477 11.0552576 24.12482246 12.92903135 40.05188974 5.62131828 38.74024857-17.80083955 77.8084067-34.94585853 116.92341032-51.99718948 7.49509057-3.27910147 14.66227011-9.7436179 23.79691142-3.98176607-0.04684402 9.6967739-0.04684402 19.34670229-0.09368949 29.04347468-12.50743231 15.22440268-31.61991303 18.83141519-48.20279944 26.60757132-21.07994105 9.88414993-42.25357158 19.72145585-63.94248921 28.3408101-16.39551034 6.51136042-15.69284574 13.63169595-2.85750391 24.07797697 31.9478226 25.99859473 62.30293847 53.87096176 92.09592325 82.30546134 2.81065842 2.71697038 5.66816229 5.29340726 7.21402503 9.04095328 0.56213109 2.24852732 0.65582059 4.49705465 0.32790955 6.79242597-3.09172543 8.99410781-7.58877861 16.86395342-16.86395342 20.7988755-2.34221534 0.23422154-4.54389866-0.1873775-6.65189245-1.21795167-37.75651841-33.72790685-75.09143631-67.87741275-113.1758643-101.23056457-11.43001264-9.97783943-21.54838411-13.77222799-35.64852312-6.97980349-40.80139837 19.5340798-82.6802149 36.58540926-123.95005782 55.04206942-24.54642154 11.00841359-24.73379757 12.78849785-16.11444335 39.34922515 5.29340726 16.30182085 11.0552576 32.50995517 16.11444335 48.85862003 2.7638144 8.90041978 5.85553984 18.08190511-0.93688614 26.79494883-6.74558195 4.35652112-13.95960551 4.35652112-21.40785207 2.38905939-2.38905937-0.84319811-4.45021063-2.10799381-6.32398292-3.79439004-14.89649166-23.37531237-19.62776783-50.59186028-28.38765409-76.26254399-5.29340726-15.45862421-13.81907347-24.49957604-29.51191776-29.69929529-50.49817077-16.67657589-100.71527747-17.19186299-151.44766977-1.54586271-17.09817495 5.29340726-27.26339191 15.31809071-33.11893027 32.60364319-8.19775518 24.26535451-12.41374279 49.88919568-24.49957751 72.88975447-1.59270672 1.92061629-3.466479 3.466479-5.66816232 4.6844307-8.33828869 3.27910147-16.72341993 3.466479-25.15539663 0.56213256-2.24852732-1.03057564-3.79439004-2.71697038-4.59074265-5.01234172 2.7638144-28.20027805 15.97391129-53.54305219 22.90686929-80.66591059 3.88807806-15.17755868 0.7026646-23.28162435-13.53800645-29.23085222-43.09676971-18.12874912-85.81878436-37.05385233-128.16604544-56.96268718-12.78849785-5.99607188-22.95371479-4.96549771-33.86843887 5.01234172-28.66872112 26.32650429-59.30490253 50.49817077-87.17727104 77.76156267-9.41570686 9.22832934-19.67461184 17.80083955-32.27573215 22.71949326-11.75792368-0.14053351-19.01879125-11.10210309-30.21458382-12.69480981z" fill="#AD4D56" p-id="729"></path><path d="M913.10444471 59.67554916c-35.78905665 36.67909876-71.5781133 73.40504155-107.41401248 110.08413884-3.84123406 3.93492206-7.86984562 6.65189247-14.28751654 5.5276288-77.71471867-13.30378492-155.94472443-24.64010955-230.42718416-51.85665598-37.38176337-13.63169595-37.10069782-14.4748926-37.05385382-53.12145313 0-10.86788155 0.1873775-21.78260563 0.23422154-32.6504872 106.4302838-0.23422154 212.86056612-0.98373015 319.29084994-0.32790954 24.82748706 0.14053351 49.04599755 6.88611399 69.65749552 22.34473821zM499.79705674 37.79925402c0.04684402 14.053295-1.17110768 28.20027805 0.46844306 42.06619406 2.62328236 22.2042047-8.99410781 33.54052931-27.49761344 40.3797993-77.66787318 28.62187564-159.1769819 40.70770887-240.12395805 55.04206942-6.46451493 1.12426365-10.4931265-1.49901871-14.38120457-5.48078478-35.97643417-36.77278679-71.85917885-73.54557359-107.78876753-110.36520439 20.14305489-14.5685821 43.42467926-21.82945113 67.45581225-21.96998465 107.27348044-0.74950862 214.54696236 0.04684402 321.86728828 0.32791104zM83.53847535 79.06909545c7.12033553-0.46844307 11.24263513 4.30967711 15.64600027 8.71304225 31.76044509 31.9478226 63.1929806 64.22355623 95.56240224 95.51555824 8.9472638 8.66619825 9.41570686 16.48919839 5.15287524 26.65441384-19.86198935 47.64066834-48.85862004 87.64571261-93.07965339 116.03336821-11.28947914 7.26086905-17.47293001 4.63758666-25.90490673-3.372791-13.95960551-13.30378492-25.76437319-29.27769621-43.79943429-37.85020642-2.90434793-38.92762609-3.419635-78.08947225-0.04684401-116.7828768 3.09172543-35.03954803 19.48723431-65.25413038 46.46956067-88.91050832zM987.02477334 280.21858191c-14.66227011 13.95960551-29.83982879 27.45076797-43.75258882 42.11303953-9.18148532 9.64992839-17.33239648 11.10210309-28.38765555 3.51332302-43.7525903-30.07405033-73.82664062-70.54753767-93.0796534-119.68722323-2.57643687-6.55820444-2.99803593-11.85161171 2.1548393-17.00448693 36.39803323-36.30434372 72.79606498-72.65553295 109.33463024-108.81934316 1.31164118-1.31164118 4.45021063-0.74950862 6.74558049-1.07741965 32.46310967 30.35511588 48.34333294 67.64319122 47.50013631 112.19213415-0.56213109 29.60560725-0.37475504 59.16436903-0.51528857 88.76997627zM986.79055182 654.78572279c-48.99915354 21.59522959-98.0919951 42.90939217-146.81008164 65.06675434-11.24263513 5.10602974-19.58092381 5.99607188-28.90294265-3.65385652-20.09621089-20.7520315-49.04599755-32.41626567-62.16240496-60.42916621 2.90434793-5.15287523 8.10406715-7.02664752 13.21009691-8.66619822 42.34726109-13.67853997 80.71275461-34.43057146 114.30012794-63.89564519 4.12229959-3.60701252 8.90041978-6.13660538 14.61542609-6.27713889 31.57306756 10.16521695 65.34781843 12.55427631 95.7029343 27.12285838 0 16.91079744 0.04684402 33.82159486 0.04684401 50.73239231zM274.9911894 655.95683194c-8.43197671 23.65637939-33.44684131 30.87040294-48.15595544 48.483865-16.30182085 19.5340798-33.72790685 21.73576163-58.22748286 8.90041978-42.48779312-22.2042047-87.73940211-39.16184763-131.86674598-58.32117092 0.04684402-17.09817495 0.04684402-34.19634991 0.09368802-51.24768086 28.99663068-14.14698305 61.74080736-15.03702515 91.5806347-26.09228423 6.55820444-0.60897658 12.88218587 1.03057564 17.47292999 5.29340873 35.27376957 32.46310967 78.13631774 50.87292582 122.35734962 66.84683712 2.99803593 1.07741965 5.24656326 3.27910147 6.74558195 6.13660538zM968.84918021 856.26312177c-40.19242178-36.1169662-80.38484358-72.18708841-123.1068597-110.55258341 49.04599755-21.50154009 95.00026967-41.69144049 141.0013873-61.88133939 0 49.65497413-0.04684402 99.26310278-0.04684402 148.91807691-4.45021063 8.99410781-2.52959286 22.81318128-17.84768358 23.51584589zM36.83469314 683.50128792l140.48610021 62.44347199c-20.56465395 18.83141519-39.20869165 35.97643417-57.94641735 53.02776511-14.33436055 13.02271937-28.99663068 25.67068518-43.2373032 38.78709257-22.53211573 20.7520315-22.43842624 20.8457195-39.16184614-4.68443216-2.10799381-49.88919568-2.01430578-99.73154587-0.14053352-149.57389751z" fill="#EA5B5A" p-id="730"></path><path d="M335.88879867 972.85862104c-59.86703363-0.7026646-120.15566778 6.51136042-179.50741432-3.79439003-45.15791951-7.86984562-79.91640051-33.16577428-101.4647861-74.76352675-0.7026646-12.41374279 6.37082691-16.44235437 17.42608598-16.16128735 3.88807806 0.7026646 7.54193458 2.24852732 10.44628103 4.8249642 45.53267453 40.66086485 98.93519323 55.93211155 159.3175154 51.66927845 25.48330766-1.82692827 51.24768086-0.51528709 76.87152057-0.18737753 9.13464131 0.14053351 18.87825921-1.26479717 26.42019379 6.13660539l1.03057416 1.03057562c4.63758666 13.16325289-0.79635264 22.95371479-10.53997051 31.245158zM950.86096314 879.91949968c1.35848518-0.04684402 2.71697038-0.04684402 4.07545557-0.09368803 8.15091116-1.87377228 11.85161171 2.81065842 14.14698304 9.6030844-17.05133093 46.32902718-71.85917885 82.72706038-129.4308426 83.80448003-50.54501627 0.93688613-101.13687505-0.14053351-151.72873533-0.32791104-13.44431843-8.61935423-15.92706729-20.09621089-8.94726381-34.10266042 9.18148532-5.66816229 19.48723431-4.35652112 29.46507376-4.45021062 31.01093647-0.1873775 62.11556095-1.12426365 93.07965339 0.18737753 48.10911141 2.06114979 89.94108395-12.88218587 127.36969281-42.30041707 6.65189247-5.24656326 12.69480981-11.75792368 21.96998317-12.32005478zM658.83350511 972.81177703c-97.9514616 0.04684402-195.90292468 0.04684402-293.85438774 0.09368801-7.16717954-13.16325289 0.42159905-22.39158223 8.3851327-31.52622353l1.35848518-1.12426366c10.30574899-6.65189247 21.92313917-6.83926998 33.63421883-6.83926999h206.91133826c11.66423418 0 23.32846836 0.04684402 33.68106137 6.65189246l1.54586273 1.17110768c8.99410781 8.90041978 12.97587537 19.11248075 8.33828867 31.57306903z" fill="#B64544" p-id="731"></path><path d="M986.74370781 388.52263799l-0.28106557 190.93742695c-28.34081007 3.37279098-55.04206944 0.84319811-76.30938944-21.17363053-1.35848518-9.27517482 3.5601685-16.48919839 8.33828868-23.51584588 25.95175072-37.85020644 41.22299743-79.82271248 48.34333295-124.9337865 1.31164118-8.3851327 1.82692827-17.19186299 9.69677241-22.81318128 3.74754455-1.63955074 7.21402502-1.68639475 10.21206097 1.49901724zM37.06891468 579.74113051c-1.92061629-63.89564519-3.09172543-127.74444637 0.60897657-191.5932461 3.32594695-2.71697038 6.69873647-2.43590484 10.07152745-0.18737753 5.24656326 5.19971924 7.40140107 11.85161171 8.19775518 18.92510324 5.5276288 48.29648894 24.49957604 91.39325865 50.54501479 131.77305648 3.79439004 5.85553984 7.96353365 11.66423418 7.26086905 19.29985826-21.07994105 22.95371479-48.20279946 24.73379757-76.68414304 21.78260565z" fill="#EA5B5A" p-id="732"></path><path d="M911.46489397 555.85053103c21.50154009 19.06563674 50.12341721 15.31809071 74.99774827 23.60953391 0.04684402 8.19775518 0.14053351 16.39551034 0.18737755 24.59326554-33.63421735-2.52959286-65.76941746-11.33632463-97.06142095-23.51584588-1.59270672-16.11444481 8.9472638-21.4546961 21.87629513-24.68695357z" fill="#AE4E56" p-id="733"></path><path d="M37.06891468 579.74113051c17.70715153-4.07545559 35.46114562-7.96353365 53.07460913-12.32005481 8.01037766-1.96746177 16.62973188-3.23225747 21.78260564-11.10210158 13.72538398 1.35848518 17.42608452 10.91472557 18.36297211 22.67264776-28.66872112 17.66030607-61.03814276 21.31416257-93.40756441 24.78064306 0.04684402-8.01037766 0.09368802-16.02075532 0.18737753-24.03113443z" fill="#AF4E56" p-id="734"></path><path d="M373.36425007 941.37924151c-2.81065842 10.4931265-5.57447281 21.03309703-8.3851327 31.52622353h-29.04347469c3.51332302-10.44628251 7.02664752-20.8457195 10.53997051-31.292002 8.9472638-0.09368802 17.89452759-0.1873775 26.88863688-0.23422153z" fill="#864048" p-id="735"></path><path d="M658.83350511 972.81177703l-8.29144467-31.52622502c8.01037766-0.42159905 16.02075532-0.89004212 24.03113445-1.31163971l2.20168182-0.56213256 1.40533069 1.78008424c3.27910147 10.58681453 6.51136042 21.12678654 9.79046043 31.66675706-9.6967739 0-19.44039029-0.04684402-29.13716272-0.04684401z" fill="#854048" p-id="736"></path><path d="M44.70453729 388.14788441h-6.97980203c0.04684402-23.37531237-4.30967711-46.6569382-0.93688614-70.07909605 10.63366003 7.58877861 20.00252287 16.48919839 27.54445598 27.21654788-9.0409533 7.58877861-16.34866634 15.69284574-13.77222798 29.09031871 0.93688613 5.01234172 0.09368802 10.91472557-5.85553983 13.77222946zM959.6676949 345.4727123c7.16717954-10.86788155 16.53604239-19.48723431 27.02916889-27.02916892 0.04684402 13.77222799 0.14053351 27.49761345 0.18737752 41.26984144-2.43590484 2.95119191-5.43394078 2.99803593-8.71304224 1.87377229-5.5276288-6.08976138-13.02271937-9.93099541-18.50350417-16.11444481z" fill="#E95B5A" p-id="737"></path><path d="M70.09415693 880.01318918c-7.07349151 2.62328236-11.57054617 8.01037766-15.17755868 14.28751508-7.86984562-8.10406715-9.32201884-19.11248075-13.16325288-29.0434747 14.66227011-11.24263513 18.83141519 6.88611399 28.38765556 10.07152747 0.98373015 1.03057564 1.31164118 2.10799381 0.98373015 3.13856943-0.32790956 0.98373015-0.7026646 1.54586272-1.03057415 1.54586272z" fill="#834049" p-id="738"></path><path d="M969.08340175 889.38205204c-4.73127616-3.18541346-9.46255087-6.37082691-14.14698304-9.55624039 4.59074267-6.27713889 9.18148532-12.50743231 13.772228-18.78456971 6.3239829-4.54389866 10.16521695-1.54586272 13.11640887 4.26283163-3.18541346 8.57251022-5.43394078 17.66030607-12.74165383 24.07797847z" fill="#864048" p-id="739"></path><path d="M981.82505558 865.30407357c-4.35652112-1.40532921-8.71304226-2.8575039-13.11640887-4.26283163l0.1405335-4.73127617c5.94922786-7.86984562 11.89845571-15.69284574 17.84768358-23.56268989 2.81065842 11.52370213-3.18541346 21.68891763-4.87180821 32.55679769z" fill="#AA4546" p-id="740"></path><path d="M979.10808521 359.57285132c2.57643687 0.04684402 5.19971924 0.09368802 7.7761561 0.09368949-0.04684402 9.60308439-0.09368802 19.20616876-0.09368949 28.80925316l-8.71304225-0.42159905c-7.54193458-9.7436179-8.15091116-19.29985826 1.03057564-28.4813436z" fill="#AF4E56" p-id="741"></path><path d="M44.70453729 388.14788441c-0.1873775-6.04291587 0.60897658-12.27321076-0.79635264-18.0350611-4.35652112-17.84768357 3.84123406-24.54642154 20.37727646-24.82748707 20.56465395 1.73324025 41.45721895-0.51528709 61.78765139 4.59074266 6.37082691-3.419635 12.97587537-5.01234172 20.2367444-3.56016851 54.10518329 10.77419206 104.27544451 31.24515799 150.60447165 61.13183081 3.32594695 2.15483783 5.5276288 5.43394078 5.76185034 9.6499284 9.22832934 6.27713889 18.50350416 12.55427631 27.73183499 18.83141519 19.29985826 1.07741965 28.85609863 17.3792405 41.69144048 27.82552301 23.37531237 19.01879125 46.46956067 38.69340454 62.72453752 64.78568733 9.41570686 7.68246811 18.83141519 15.36493472 28.20027659 23.04740281 5.01234172-2.01430578 6.46451493 2.57643687 9.13464131 4.91865369 6.55820444 6.74558195 13.86591749 12.22636675 23.23478033 14.5685821 5.80869434 11.38316864 0.84319811 18.22243861-9.64992837 22.67264776-14.99018114 14.80280364-29.69929529 29.8866728-47.26591332 41.73828451-0.37475504 9.32201884-8.85357575 7.40140107-14.006451 10.11837146-8.29144321 1.45217324-16.34866634 3.419635-22.62580377 9.60308439-28.29396607 16.62973188-57.6653518 22.53211573-89.05104182 9.2283308-12.64796433-2.81065842-25.24908613-5.66816229-37.89705046-8.47882071-55.36998046-12.27321076-101.79269566-41.31668545-144.74893331-76.96521006-6.13660538-7.54193458-12.22636675-15.08386918-18.36297065-22.67264776-38.97447011-49.37390711-56.30686659-107.46085796-67.08106012-168.17108971zM979.10808521 359.57285132c-0.32790956 9.50939635-0.7026646 19.01879125-1.03057564 28.52818761-7.82300013 31.29200202-11.1489471 63.61457965-23.98428895 93.78231799-11.24263513 26.46703781-25.90490673 50.77923778-42.62832665 74.01401813-7.26086905 8.24459918-14.5685821 16.44235437-21.82944965 24.68695355-40.89508639 36.30434372-87.0835815 62.72453751-140.72032175 75.1851258-12.60112031 2.90434793-25.20224065 5.80869434-37.80336243 8.7598863-31.38569151 13.21009692-60.75707574 7.35455708-89.0510433-9.22832936-9.36886286-4.73127616-18.73772569-9.41570686-28.10658855-14.14698303-5.38709676 2.24852732-7.58877861-0.65582059-8.75988626-5.34025275-17.98821708-11.33632463-32.04151062-27.21654643-47.50013484-41.45721749-11.00841359-4.68443216-16.72341993-11.43001264-9.32201885-23.42215786 7.86984562-4.8718082 15.78653378-9.7436179 23.65637793-14.61542609 2.38905937-2.52959286 3.98176608-6.51136042 8.71304374-4.96549771 9.36886286-7.63562261 18.6908817-15.2712467 28.05974453-22.90686932 29.74613929-36.49172126 60.33547815-72.04655635 104.18175502-92.79858784 9.36886286-6.2302934 18.73772569-12.46058828 28.15343402-18.69088168 1.49901871-8.99410781 9.27517482-11.99214522 15.69284575-16.02075532 42.01935006-26.37334978 87.92677817-42.90939217 136.12957761-53.6835857 8.71304226-1.92061629 16.95764145-1.87377228 24.87433108 2.52959286 20.37727644-4.8249642 41.22299743-2.90434793 61.83449688-4.26283163 9.32201884 0.7026646 20.18990039-0.60897658 19.44039031 14.05329354z" fill="#123450" p-id="742"></path><path d="M523.92187771 210.51424237c0-17.94137308 0.28106555-35.92959015-0.093688-53.87096177-0.28106555-12.88218587 1.68639475-19.20616876 17.23870697-12.92903135 69.65749553 28.24712207 143.53098016 39.48975718 216.98286721 52.32509904 5.24656326 0.93688613 12.03898924-0.93688613 14.6622701 4.9186537 2.90434793 6.46451493-4.02861156 9.36886286-7.54193458 12.92903135-36.72594278 37.24122987-73.87348463 74.06086214-110.41204988 111.48946806-6.74558195 6.88611399-12.97587537 8.3851327-22.53211574 7.30771306-31.71360107-3.65385652-60.10125517-14.6154261-86.38091692-32.5099537-16.30182085-11.10210309-24.45273202-24.73379757-22.25104871-45.15791949 1.59270672-14.70911413 0.32790956-29.69929529 0.32790955-44.5020989zM499.93758876 211.07637346c0 10.91472557-1.73324025 22.15736068 0.32791104 32.69733268 7.02664752 35.46114562-13.81907347 54.33940483-40.80139837 67.87741128-17.89452759 8.9472638-37.80336243 14.10013902-57.10322068 19.86198936-16.16128882 4.8249642-28.48134361-0.28106555-40.66086486-13.35062894-33.4936853-35.88274466-68.95483092-69.93856254-103.4322464-104.88442107-3.13856945-3.18541346-7.77615612-7.82300013-7.26086904-11.05525908 1.07741965-6.46451493 8.19775518-5.24656326 13.44431844-6.13660391 74.2482382-12.27321076 148.59016588-24.35904399 218.95032749-52.55932204 13.25694091-5.29340726 16.86395342-1.40532921 16.62973188 11.38316863-0.32790956 18.73772569-0.09368802 37.42860738-0.0936895 56.16633309zM302.72302437 417.0976696c-54.71415988-33.35315181-112.28582215-59.16436903-176.60306787-67.2215907 27.45076797-28.34081007 58.50854844-53.49620818 77.90209619-88.86366577 3.37279098-6.13660538 7.40140107-11.94529973 10.44628249-18.22243861 11.7110782-24.07797845 11.66423418-24.17166649 29.93351682-5.76185034 34.1026619 34.29003794 67.69003523 69.09536444 102.49536027 102.63589378 10.11837146 9.7436179 10.91472557 16.86395342 2.43590483 27.07601437-14.66227011 17.66030607-24.68695355 39.48975718-46.61009273 50.35763727zM897.83319802 349.73554539c-64.27040023 8.19775518-122.12312809 33.39999583-176.69675444 67.12790268-27.31023594-11.28947914-35.92959015-39.06815813-52.55932205-59.72650012-4.16914361-5.15287523 0.46844307-8.52566474 3.60701254-11.75792368 38.59971506-40.42664332 80.24431153-77.94894019 116.78287679-120.38988931 4.54389866-5.29340726 9.36886286-5.6213183 12.27321076 1.68639623 20.09621089 50.54501627 57.15006471 87.73940211 96.5929764 123.0600142zM434.8708359 528.54029513c-34.61794898-31.05778049-67.4089697-64.22355623-104.415978-92.61121034 13.25694091-18.12874912 26.74810336-36.07012219 39.72397871-54.38624883 5.6213183-7.96353365 10.68050403-7.35455708 16.81710941-0.98373162 32.27573216 33.63421735 64.59830979 67.22159216 96.96773145 100.7621215 4.30967711 4.45021063 7.07349151 8.75988627 0.0936895 13.02271936-17.14501898 10.352593-29.13716418 28.10658854-49.18653107 34.19634993zM693.02985504 435.60117524c-36.67909876 28.71556513-69.89171707 61.36605233-104.1817565 92.79858636-19.29985826-5.71500633-31.15146996-22.57895974-47.78120186-32.27573215-7.12033553-4.16914361-6.2302934-9.22832934-0.6558191-14.99018115 31.9478226-32.97839824 63.80195717-66.05048449 95.42186872-99.3567908 7.35455708-7.77615612 11.75792368-6.83926998 17.8945276 1.82692826 12.46058828 17.75399555 26.13912826 34.71163699 39.30238114 51.99718948zM524.99929738 460.75657185v-140.86085525c27.31023594 15.73968977 53.5898962 29.09032016 82.63337088 35.32061359 12.08583324 2.57643687 9.41570686 7.63562261 3.466479 13.95960551-27.16970241 28.90294266-54.38624884 57.80588383-86.09984988 91.58063615zM499.93758876 318.11563383c0 43.28414722 0.04684402 81.46226322-0.09368801 119.64037922 0 4.45021063 1.92061629 10.30574899-2.85750391 12.83534187-6.51136042 3.466479-9.64992839-3.32594695-13.06956338-6.83926998-23.79691145-24.64010955-47.31275731-49.51444063-70.82860467-74.43561573-4.26283311-4.49705465-10.11837146-10.82103606 0.7963541-13.30378493 29.83982879-6.83926998 56.96268719-19.58092381 86.05300587-37.89705045zM528.41893236 570.84071072c-3.04487995 10.25890497 6.41767093 15.55231226 9.32201884 23.42215786 5.66816229 18.45666015 11.38316864 36.86647631 17.47292853 56.68162164H468.97349632c5.6213183-19.15932475 11.24263513-38.22496149 16.81710941-57.24375273 2.95119191-7.68246811 11.7110782-12.88218587 9.6499284-22.67264926 1.63955074-16.91079744 8.57251022-32.08835612 16.39551035-52.55932056l16.58288788 52.37194305z" fill="#EA5B5A" p-id="743"></path><path d="M472.20575526 556.50635163l-9.13464133-4.91865369c-0.23422154-8.15091116 3.98176608-12.88218587 11.6642342-15.17755721 4.63758666 7.54193458-3.70070052 13.21009692-2.52959287 20.0962109z" fill="#E15959" p-id="744"></path><path d="M560.78835402 551.30663238c-2.90434793 1.63955074-5.80869434 3.32594695-8.71304227 4.96549772 0.37475504-6.65189247-7.58877861-12.08583324-2.95119191-19.67461332 7.63562261 2.10799381 11.66423418 6.79242597 11.66423418 14.7091156z" fill="#E35959" p-id="745"></path><path d="M70.09415693 880.01318918c0-1.54586272 0-3.13856945 0.046844-4.68443215 40.3329553-35.08639204 81.13435367-69.61065152 120.57726685-105.68077372 10.53997053-9.60308439 19.01879125-10.4931265 30.6830254-5.24656324 47.35960281 21.40785207 94.6255161 42.90939217 142.26618447 63.66142366 12.22636675 5.34025127 16.25497685 10.72734804 11.0552576 24.49957749-10.86788155 28.94978667-19.67461184 58.64908193-29.37138571 88.0204662-49.13968559 0.09368802-98.37306064 1.59270672-147.46590222-0.04684402-50.68554828-1.68639475-91.8148577-26.32650429-127.79129039-60.52285422zM678.1802074 941.19186398c-1.17110768-0.51528709-2.38905937-0.93688613-3.60701251-1.26479568-4.30967711-29.55876323-16.77026541-56.68162017-25.85806271-84.7413662-4.59074267-14.14698305-2.57643687-21.26731857 11.24263659-27.21654642 48.6243985-21.03309703 96.82719795-43.00308167 145.31106441-64.41093375 7.72931212-3.419635 14.80280364-5.94922786 23.23478033 1.82692827 39.44291317 36.49172126 79.72902447 72.14024438 119.59353523 108.21036805 1.54586272 1.40532921 1.87377228 4.16914361 2.81065842 6.32398143-36.02327819 38.50602704-79.96324598 60.19494467-133.13154315 60.89760927-46.5632487 0.56213109-93.0796534 0.28106555-139.59605661 0.37475503zM648.9961992 940.06760032c-91.44010267 0.04684402-182.8333613 0.14053351-274.27346395 0.18737753 8.9472638-28.10658854 18.45666015-56.07264507 26.5607273-84.41345515 3.60701252-12.64796433 10.86788155-19.67461184 22.67264779-24.12482247 60.99129727-23.04740282 121.42046348-20.28358843 181.80278565 2.62328238 9.55624036 3.60701252 12.17952127 11.19579111 14.84964764 19.29985679 9.50939635 28.80925315 18.92510322 57.61850779 28.38765557 86.42776092zM312.88823986 664.43565265c30.21458235 1.96746177 59.63281209-3.51332302 89.0510433-9.2283308 31.01093647 21.12678654 23.93744494 48.20279946 12.88218586 76.68414451-8.15091116 20.939409-15.2712467 42.30041561-21.31416258 63.9424892-3.27910147 11.7110782-8.90041978 13.06956338-18.45666015 8.85357578-45.39214103-20.09621089-90.73743806-40.2392658-136.12957909-60.33547816-12.41374279-5.48078479-6.93295802-10.77419206-0.14053349-16.48919839 24.73379757-21.07994105 49.4207526-42.25357158 74.10770615-63.42720214zM622.06071684 655.25416734c29.37138571 6.13660538 58.83645947 10.96156958 89.0510433 9.22832934 23.42215786 20.33043244 46.09480564 41.55090699 70.45384964 60.61654371 14.89649166 11.61739018 12.69480981 14.89649166-3.5133245 21.59522813-43.09676971 17.80083955-85.77194033 36.72594278-127.83813439 56.86899916-14.84964765 7.12033553-18.40981614 1.78008425-22.11051667-10.77419354-8.33828869-28.29396607-16.48919839-56.77530966-26.84179287-84.36660965-6.46451493-17.23870847-7.49509057-30.49564938 10.16521696-41.03561991 4.40336514-2.62328236 7.16717954-8.01037766 10.63365853-12.13267724zM600.88708778 791.14952341c1.96746177 9.64992839-3.65385652 9.46255087-9.36886284 7.72931211-52.6998541-15.69284574-105.39970816-15.78653378-158.14640775-0.32790955-10.30574899 3.04487995-12.74165383-0.28106555-9.41570685-10.39943849 9.46255087-28.76240914 18.36297213-57.7121958 27.54445745-86.56829298 0.46844307-1.49901871 1.03057564-3.04487995 1.92061628-4.2628331 20.61149797-27.63814547 50.68554828-18.73772569 77.43365315-18.12875059 18.03506109 0.42159905 36.67909876 4.54389866 42.90939217 28.10659 7.58877861 28.57503162 18.03506109 56.30686659 27.12285839 83.8513226z" fill="#EA5B5A" p-id="746"></path><path d="M424.56508691 645.60423746c4.68443216-3.37279098 9.32201884-6.74558195 14.00644953-10.11837146 8.19775518 4.49705465 4.30967711 10.82103606 0.60897657 14.6154261-6.27713889 6.37082691-8.99410781-5.01234172-14.6154261-4.49705464z" fill="#E15959" p-id="747"></path><path d="M585.24108603 635.76693153c2.90434793 1.78008425 5.85553984 3.5601685 8.75988628 5.34025277-0.42159905 5.38709676-1.63955074 12.92903135-8.01037764 10.44628104-7.63562261-2.90434793-8.52566474-10.07152746-0.74950864-15.78653381z" fill="#E35959" p-id="748"></path><path d="M429.48373913 568.26427385c-31.15146996 41.03561988-72.46815541 57.24375273-121.37361946 52.98091961-111.44262553-9.6967739-189.43840826-87.87993414-200.72788888-199.18202615-3.09172543-30.35511588-2.38905937-30.54249339 28.66872111-26.93548087 76.543611 8.90041978 139.6897461 45.29845299 197.02718836 94.20391704 31.38569151 26.79494737 58.97699297 58.04010535 96.40559887 78.93267037zM701.74289728 623.35318874c-40.28611129 0.42159905-74.66983726-12.97587537-102.12060667-43.04992568-5.99607188-6.55820444-9.18148532-11.28947914 1.45217323-17.51977401 36.67909876-21.40785207 63.9893347-54.2457168 96.49928986-80.85328666 57.10321922-46.75062623 119.87460223-80.47853308 194.49759399-88.95735379 19.62776783-2.24852732 27.96605651 0.23422154 26.32650577 24.54642005-7.96353365 116.50181125-100.7621215 205.88076412-216.65495618 205.83392009z" fill="#FFFFFF" p-id="749"></path></svg>